<?xml version="1.0" encoding="utf-8"?>
<!-- Generator: Adobe Illustrator 24.1.2, SVG Export Plug-In . SVG Version: 6.00 Build 0)  -->
<svg version="1.1" id="Capa_1" xmlns="http://www.w3.org/2000/svg" xmlns:xlink="http://www.w3.org/1999/xlink" x="0px" y="0px"
	 viewBox="0 0 320 55" style="enable-background:new 0 0 320 55;" xml:space="preserve">
<style type="text/css">
	.st0{fill:#1E23AA;}
</style>
<g>
	<path class="st0" d="M69.61,37.01L59.44,4.83c-0.21-0.64-0.49-1.27-0.9-1.86c-2.22-3.16-6.59-3.92-9.75-1.7L2.98,33.47
		c-3.16,2.22-3.92,6.59-1.7,9.75C2.63,45.16,4.8,46.2,7,46.2h56c3.87,0,7-3.13,7-7C70,38.43,69.84,37.7,69.61,37.01z M46.93,16.13
		l-28,19.6c-0.31,0.21-0.66,0.32-1,0.32c-0.55,0-1.09-0.26-1.43-0.75c-0.55-0.79-0.36-1.88,0.43-2.44l28-19.6
		c0.79-0.55,1.88-0.36,2.44,0.43C47.91,14.49,47.72,15.58,46.93,16.13z"/>
	<g>
		<path class="st0" d="M90.66,25C84.38,25,80,29.7,80,35.8c0,6.19,4.74,10.8,11.2,10.8c3.84,0,6.28-1.17,7.77-2.3
			c0.36-0.32,0.41-0.68,0.18-1.08l-1.17-1.94c-0.23-0.45-0.59-0.5-0.99-0.18c-1.22,0.81-2.8,1.72-5.29,1.72
			c-3.89,0-6.69-2.39-7.23-5.69h15.41c0.45,0,0.72-0.27,0.77-0.77v-0.72C100.65,29.38,96.63,25,90.66,25z M96.36,33.9H84.52
			c0.63-3.21,3.03-5.24,6.28-5.24c2.94,0,5.24,2.08,5.56,5.15V33.9z"/>
		<path class="st0" d="M124.81,25.41h-2.58c-0.45,0-0.72,0.27-0.77,0.72l-0.14,2.03c-1.58-1.81-4.07-3.16-7.41-3.16
			c-5.69,0-10.08,4.61-10.08,10.8s4.34,10.8,10.03,10.8c3.52,0,6.01-1.58,7.59-3.7l0.14,2.58c0,0.45,0.32,0.72,0.72,0.72h2.48
			c0.5,0,0.77-0.27,0.77-0.77V26.17C125.57,25.68,125.3,25.41,124.81,25.41z M114.77,42.48c-3.57,0-6.42-2.85-6.42-6.69
			c0-3.84,2.85-6.69,6.42-6.69c3.89,0,6.46,2.85,6.51,6.69C121.28,39.64,118.66,42.48,114.77,42.48z"/>
		<path class="st0" d="M139.34,33.72c-3.52-0.86-4.79-1.4-4.79-2.76c0-1.54,1.4-2.21,3.34-2.21c2.17,0,3.89,0.54,5.65,1.49
			c0.45,0.27,0.81,0.18,1.04-0.23l1.13-2.08c0.27-0.45,0.18-0.81-0.23-1.04c-1.76-1.04-4.25-1.85-7.36-1.85
			c-4.88,0-8.13,2.39-8.13,6.14c0,3.7,3.34,5.29,7.41,6.28c3.3,0.81,4.38,1.54,4.38,2.98c0,1.58-1.4,2.44-3.7,2.44
			c-2.62,0-4.79-0.81-6.37-1.85c-0.41-0.27-0.77-0.18-1.04,0.23l-1.22,2.12c-0.23,0.45-0.18,0.81,0.27,1.04
			c2.17,1.31,4.83,2.17,8.09,2.17c5.29,0,8.54-2.58,8.54-6.37C146.34,36.34,143.72,34.85,139.34,33.72z"/>
		<path class="st0" d="M169.43,25.41h-3.16c-0.41,0-0.72,0.18-0.86,0.59l-6.01,15.05l-6.1-15.05c-0.14-0.41-0.45-0.59-0.86-0.59
			h-3.48c-0.54,0-0.77,0.36-0.54,0.9L157,46.19l-3.21,7.95c-0.23,0.5,0.05,0.86,0.59,0.86h2.94c0.41,0,0.72-0.23,0.86-0.59l4.11-9.8
			l7.68-18.3C170.2,25.77,169.97,25.41,169.43,25.41z"/>
		<path class="st0" d="M185.52,25c-3.48,0-5.96,1.49-7.59,3.57l-0.14-2.44c0-0.45-0.32-0.72-0.77-0.72h-2.35
			c-0.45,0-0.77,0.27-0.77,0.77v28.06c0,0.5,0.32,0.77,0.77,0.77h2.94c0.45,0,0.77-0.27,0.77-0.77V43.21
			c1.54,1.9,3.98,3.39,7.23,3.39c5.74,0,10.03-4.61,10.03-10.8S191.21,25,185.52,25z M184.71,42.48c-3.89,0-6.51-2.85-6.51-6.69
			c0-3.89,2.62-6.69,6.51-6.69c3.57,0,6.42,2.85,6.42,6.69C191.12,39.64,188.28,42.48,184.71,42.48z"/>
		<path class="st0" d="M211.89,25.05C211.57,25,211.21,25,210.89,25c-3.7,0-6.19,2.03-7.05,4.47l-0.14-3.34
			c0-0.45-0.32-0.72-0.77-0.72h-2.35c-0.45,0-0.77,0.27-0.77,0.77v19.25c0,0.5,0.32,0.77,0.77,0.77h2.98c0.5,0,0.77-0.27,0.77-0.77
			v-10.3c0.05-2.94,2.03-5.83,5.92-5.83c0.45,0,0.86,0.05,1.17,0.14c0.5,0.09,0.81-0.09,0.86-0.63l0.27-2.89
			C212.61,25.45,212.38,25.09,211.89,25.05z"/>
		<path class="st0" d="M225.27,25.05c-6.1,0-11.07,4.61-11.07,10.8c0,6.14,4.97,10.75,11.07,10.75c6.05,0,11.02-4.61,11.02-10.75
			C236.29,29.65,231.32,25.05,225.27,25.05z M225.27,42.48c-3.61,0-6.51-2.94-6.51-6.64c0-3.8,2.89-6.73,6.51-6.73
			c3.57,0,6.46,2.94,6.46,6.73C231.73,39.55,228.84,42.48,225.27,42.48z"/>
		<path class="st0" d="M265.41,25c-3.3,0-5.87,1.94-7.09,4.2c-1.45-2.58-4.11-4.2-7.59-4.2c-3.25,0-5.87,1.85-7.05,4.11l-0.14-2.98
			c-0.05-0.45-0.36-0.72-0.81-0.72h-1.9c-0.45,0-0.77,0.27-0.77,0.77v19.25c0,0.5,0.32,0.77,0.77,0.77h2.98
			c0.5,0,0.77-0.27,0.77-0.77l0.05-11.11c0.27-2.71,2.12-5.24,5.38-5.24c3.07,0,5.06,2.44,5.06,6.19v10.17
			c0,0.5,0.27,0.77,0.72,0.77h3.03c0.45,0,0.77-0.27,0.77-0.77v-10.3c0-3.34,2.08-6.05,5.38-6.05c3.16,0,5.06,2.44,5.06,6.19v10.17
			c0,0.5,0.27,0.77,0.72,0.77h3.03c0.45,0,0.72-0.27,0.72-0.77V34.67C274.49,28.84,270.83,25,265.41,25z"/>
		<path class="st0" d="M288.75,25.05c-6.1,0-11.07,4.61-11.07,10.8c0,6.14,4.97,10.75,11.07,10.75c6.05,0,11.02-4.61,11.02-10.75
			C299.78,29.65,294.81,25.05,288.75,25.05z M288.75,42.48c-3.61,0-6.51-2.94-6.51-6.64c0-3.8,2.89-6.73,6.51-6.73
			c3.57,0,6.46,2.94,6.46,6.73C295.21,39.55,292.32,42.48,288.75,42.48z"/>
		<path class="st0" d="M313,33.72c-3.52-0.86-4.79-1.4-4.79-2.76c0-1.54,1.4-2.21,3.34-2.21c2.17,0,3.89,0.54,5.65,1.49
			c0.45,0.27,0.81,0.18,1.04-0.23l1.13-2.08c0.27-0.45,0.18-0.81-0.23-1.04c-1.76-1.04-4.25-1.85-7.36-1.85
			c-4.88,0-8.13,2.39-8.13,6.14c0,3.7,3.34,5.29,7.41,6.28c3.3,0.81,4.38,1.54,4.38,2.98c0,1.58-1.4,2.44-3.7,2.44
			c-2.62,0-4.79-0.81-6.37-1.85c-0.41-0.27-0.77-0.18-1.04,0.23l-1.22,2.12c-0.23,0.45-0.18,0.81,0.27,1.04
			c2.17,1.31,4.83,2.17,8.09,2.17c5.29,0,8.54-2.58,8.54-6.37C320,36.34,317.38,34.85,313,33.72z"/>
	</g>
</g>
</svg>
